<svg width="37" height="36" viewBox="0 0 37 36" fill="none" xmlns="http://www.w3.org/2000/svg">
<ellipse cx="18.5" cy="18.1601" rx="18.5" ry="17.5038" fill="#58585B"/>
<path fill-rule="evenodd" clip-rule="evenodd" d="M25.76 20.1531C25.659 19.9989 25.533 19.7482 25.424 19.6101L23.829 17.5995C23.72 17.4604 23.594 17.2106 23.55 17.0431C23.55 17.0431 22.902 14.7525 22.899 14.7497C22.539 12.6596 21.295 11.0625 18.985 11.0625C16.653 11.0625 15.389 12.688 15.053 14.8055C15.05 14.8093 14.412 17.0431 14.412 17.0431C14.367 17.2106 14.241 17.4604 14.132 17.5995L12.538 19.6101C12.428 19.7482 12.302 19.9989 12.258 20.1664L12 22.4163H26L25.76 20.1531Z" fill="white"/>
<path fill-rule="evenodd" clip-rule="evenodd" d="M18.998 24.3086C18.446 24.3086 17.998 24.7325 17.998 25.2547C17.998 25.777 18.446 26.2009 18.998 26.2009C19.55 26.2009 19.998 25.777 19.998 25.2547C19.998 24.7325 19.55 24.3086 18.998 24.3086" fill="white"/>
</svg>
