<svg width="65" height="37" viewBox="0 0 65 37" fill="none" xmlns="http://www.w3.org/2000/svg">
<path fill-rule="evenodd" clip-rule="evenodd" d="M49.5764 3.23619V18.645C49.5764 19.496 48.8366 20.1859 47.9239 20.1859C47.0112 20.1859 46.2713 19.496 46.2713 18.645V3.23619C46.2713 2.38519 47.0112 1.69531 47.9239 1.69531C48.8366 1.69531 49.5764 2.38519 49.5764 3.23619ZM40.2118 17.2788C41.4237 17.2788 41.8644 16.6419 41.8644 15.8612V8.97862C41.8644 8.20818 41.4237 7.57128 40.2118 7.57128C39 7.57128 38.5593 8.22872 38.5593 8.97862V15.8612C38.5593 16.6419 39 17.2788 40.2118 17.2788ZM11.017 15.8612C10.9429 16.6614 10.2259 17.2765 9.36451 17.2788C8.50312 17.2765 7.78612 16.6614 7.71197 15.8612V8.97863C7.80903 8.19612 8.5197 7.6057 9.36451 7.6057C10.2093 7.6057 10.92 8.19612 11.017 8.97863V15.8612ZM1.65254 11.4849C0.795017 11.4867 0.0795036 12.0961 0 12.8922V15.861C0.0970657 16.6435 0.807731 17.2339 1.65254 17.2339C2.49735 17.2339 3.20802 16.6435 3.30508 15.861V12.8922C3.22558 12.0961 2.51007 11.4867 1.65254 11.4849ZM63.3474 11.4849C62.4899 11.4867 61.7744 12.0961 61.6949 12.8922V15.861C61.7919 16.6435 62.5026 17.2339 63.3474 17.2339C64.1922 17.2339 64.9029 16.6435 64.9999 15.861V12.8922C64.9204 12.0961 64.2049 11.4867 63.3474 11.4849ZM18.7287 24.788H22.0337V36.0877H18.7287V24.788ZM37.2554 34.9049C36.0193 33.8027 35.3167 32.2792 35.3091 30.6844C35.3431 29.062 36.078 27.5211 37.3474 26.411C38.6167 25.3009 40.313 24.7156 42.0515 24.7879C43.1167 24.863 44.1762 24.9968 45.2244 25.1886V28.2703C44.7344 28.2429 44.3424 28.12 43.9341 27.9919C43.4245 27.8321 42.8895 27.6643 42.1066 27.6643C41.2064 27.6252 40.3266 27.9217 39.6611 28.4883C38.9956 29.0548 38.5991 29.8449 38.5591 30.6844C38.7222 32.4326 40.325 33.7555 42.2058 33.6942C42.9777 33.6942 43.4668 33.5322 43.9385 33.376C44.3149 33.2513 44.6803 33.1303 45.1693 33.0984V36.1288C44.0773 36.3245 42.9736 36.4582 41.8642 36.5294C40.1552 36.5936 38.4916 36.0072 37.2554 34.9049ZM4.52819 30.6845C4.53023 32.27 5.2218 33.787 6.44479 34.8887C7.66779 35.9903 9.31765 36.5824 11.0172 36.5295C12.1267 36.4602 13.2306 36.3264 14.3223 36.1289V33.0985C13.4041 33.4843 12.4098 33.6872 11.4028 33.6943C9.49911 33.7946 7.85894 32.457 7.71209 30.6845C7.74637 29.8468 8.13802 29.0567 8.80002 28.4896C9.46201 27.9225 10.3395 27.6254 11.2375 27.6643C12.294 27.6827 13.3372 27.8884 14.3112 28.2704V25.1887C13.2742 24.9967 12.2257 24.8629 11.1714 24.788C9.44718 24.7327 7.77156 25.3264 6.52194 26.4356C5.27233 27.5447 4.5538 29.076 4.52819 30.6845ZM48.6393 26.538C49.8032 25.4353 51.3984 24.822 53.0576 24.8393C54.7159 24.8249 56.3093 25.4391 57.4725 26.5412C58.6358 27.6433 59.269 29.1386 59.2271 30.6844C59.2271 32.7396 58.0512 34.6387 56.1424 35.6663C54.2335 36.6939 51.8817 36.6939 49.9729 35.6663C48.064 34.6387 46.8881 32.7396 46.8881 30.6844C46.8431 29.1378 47.4753 27.6407 48.6393 26.538ZM53.0574 33.6532C51.7582 33.7078 50.5541 33.0201 50.0158 31.9161C49.4776 30.8122 49.7135 29.514 50.6117 28.6371C51.5099 27.7601 52.8898 27.4807 54.0972 27.9312C55.3047 28.3818 56.0968 29.4718 56.0981 30.6845C56.1218 31.4534 55.813 32.1989 55.2412 32.7534C54.6693 33.3079 53.8824 33.6247 53.0574 33.6327V33.6532ZM29.7129 29.277L30.484 29.5236C32.0939 29.8745 33.2368 31.2076 33.2493 32.7491C33.2493 35.5946 31.2773 36.5397 29.0188 36.5397C28.1471 36.5714 27.2758 36.4672 26.4408 36.2315V33.6326C27.113 33.9431 27.864 34.0746 28.6112 34.0127C30.0764 34.0127 30.44 33.5504 30.44 32.9854C30.44 32.4204 29.7129 32.0917 28.9747 31.8657C28.8866 31.8349 28.7544 31.8015 28.6222 31.7681C28.49 31.7347 28.3578 31.7014 28.2696 31.6705C26.6281 31.1672 25.2179 30.2324 25.2179 28.3628C25.2179 26.2466 27.1569 24.829 29.8781 24.829C30.9462 24.8473 32.0094 24.9677 33.051 25.1886V27.6129C32.1901 27.4247 31.3123 27.3112 30.429 27.2739C29.2391 27.2739 28.4349 27.5102 28.4349 28.1984C28.4349 28.8717 29.1939 29.1124 29.6808 29.2668L29.7129 29.277ZM26.4406 15.8612V8.97863C26.3436 8.19612 25.6329 7.6057 24.7881 7.6057C23.9433 7.6057 23.2326 8.19612 23.1356 8.97863V15.8612C23.2326 16.6437 23.9433 17.2341 24.7881 17.2341C25.6329 17.2341 26.3436 16.6437 26.4406 15.8612ZM30.8473 12.8922C30.9268 12.0961 31.6423 11.4867 32.4999 11.4849C33.3574 11.4867 34.0729 12.0961 34.1524 12.8922V15.861C34.0554 16.6435 33.3447 17.2339 32.4999 17.2339C31.6551 17.2339 30.9444 16.6435 30.8473 15.861V12.8922ZM18.7287 3.23614C18.7674 2.82522 18.6019 2.42044 18.2795 2.13791C17.9572 1.85538 17.5137 1.72631 17.0762 1.78772C16.6387 1.72631 16.1952 1.85538 15.8729 2.13791C15.5505 2.42044 15.3849 2.82522 15.4236 3.23614V18.6449C15.3849 19.0559 15.5505 19.4606 15.8729 19.7432C16.1952 20.0257 16.6387 20.1548 17.0762 20.0934C17.5137 20.1548 17.9572 20.0257 18.2795 19.7432C18.6019 19.4606 18.7674 19.0559 18.7287 18.6449V3.23614ZM57.2882 15.8612C57.2137 16.6654 56.4903 17.2818 55.6247 17.2788C54.7655 17.2761 54.0519 16.6598 53.9832 15.8612V8.97863C54.0802 8.19612 54.7909 7.6057 55.6357 7.6057C56.4805 7.6057 57.1912 8.19612 57.2882 8.97863V15.8612Z" fill="#00BCEB"/>
</svg>
