<svg width="17" height="16" viewBox="0 0 17 16" fill="none" xmlns="http://www.w3.org/2000/svg">
<path fill-rule="evenodd" clip-rule="evenodd" d="M8.74219 0C4.32415 0 0.742188 3.58196 0.742188 8C0.742188 12.418 4.32415 16 8.74219 16C13.1602 16 16.7422 12.418 16.7422 8C16.7422 3.58196 13.1602 0 8.74219 0ZM2.74219 8C2.74219 4.68653 5.42872 2 8.74219 2C12.0557 2 14.7422 4.68653 14.7422 8C14.7422 11.3135 12.0557 14 8.74219 14C5.42872 14 2.74219 11.3135 2.74219 8ZM9.74219 7H12.7422V9H9.74219V12H7.74219V9H4.74219V7H7.74219V4H9.74219V7Z" fill="#00BCEB"/>
</svg>
