<svg width="22" height="22" viewBox="0 0 22 22" fill="none" xmlns="http://www.w3.org/2000/svg">
<path fill-rule="evenodd" clip-rule="evenodd" d="M7.52676 0C3.78042 0 0.742188 3.114 0.742188 6.956C0.742188 10.596 3.46928 13.578 6.94252 13.881C6.99227 13.241 7.11028 12.62 7.29463 12.03C4.65921 11.903 2.5544 9.69 2.5544 6.956C2.5544 4.141 4.78113 1.858 7.52676 1.858C10.1934 1.858 12.3528 4.016 12.4757 6.718C13.0521 6.528 13.6578 6.408 14.2821 6.356C13.9856 2.796 11.0771 0 7.52676 0ZM7.78589 4.00284H6.81053V7.00284H3.88447V8.00284H6.81053V10.0028H7.78589V8.00284H10.712V7.00284H7.78589V4.00284Z" fill="#00BCEB"/>
<path fill-rule="evenodd" clip-rule="evenodd" d="M15.68 11.0115H14.7046V14.0115H11.7785V15.0115H14.7046V18.0115H15.68V15.0115H18.606V14.0115H15.68V11.0115ZM15.1921 19.4758C12.4465 19.4758 10.2198 17.1928 10.2198 14.3778C10.2198 11.5628 12.4465 9.27985 15.1921 9.27985C17.9378 9.27985 20.1645 11.5628 20.1645 14.3778C20.1645 17.1928 17.9378 19.4758 15.1921 19.4758ZM15.1923 7.42188C11.4459 7.42188 8.40771 10.5369 8.40771 14.3779C8.40771 18.2199 11.4459 21.3339 15.1923 21.3339C18.9386 21.3339 21.9769 18.2199 21.9769 14.3779C21.9769 10.5369 18.9386 7.42188 15.1923 7.42188Z" fill="#00BCEB"/>
<path fill-rule="evenodd" clip-rule="evenodd" d="M7.52676 0C3.78042 0 0.742188 3.114 0.742188 6.956C0.742188 10.596 3.46928 13.578 6.94252 13.881C6.99227 13.241 7.11028 12.62 7.29463 12.03C4.65921 11.903 2.5544 9.69 2.5544 6.956C2.5544 4.141 4.78113 1.858 7.52676 1.858C10.1934 1.858 12.3528 4.016 12.4757 6.718C13.0521 6.528 13.6578 6.408 14.2821 6.356C13.9856 2.796 11.0771 0 7.52676 0ZM7.78589 7.00284H6.81053H3.88447V8.00284H6.81053H7.78589H10.712V7.00284H7.78589Z" fill="#00BCEB"/>
<path fill-rule="evenodd" clip-rule="evenodd" d="M15.68 14.0115H14.7046H11.7785V15.0115H14.7046H15.68H18.606V14.0115H15.68ZM15.1921 19.4758C12.4465 19.4758 10.2198 17.1928 10.2198 14.3778C10.2198 11.5628 12.4465 9.27985 15.1921 9.27985C17.9378 9.27985 20.1645 11.5628 20.1645 14.3778C20.1645 17.1928 17.9378 19.4758 15.1921 19.4758ZM15.1923 7.42188C11.4459 7.42188 8.40771 10.5369 8.40771 14.3779C8.40771 18.2199 11.4459 21.3339 15.1923 21.3339C18.9386 21.3339 21.9769 18.2199 21.9769 14.3779C21.9769 10.5369 18.9386 7.42188 15.1923 7.42188Z" fill="#00BCEB"/>
</svg>
