<svg width="77" height="31" viewBox="0 0 77 31" fill="none" xmlns="http://www.w3.org/2000/svg">
<path fill-rule="evenodd" clip-rule="evenodd" d="M20.1364 8H14.6818C14.3068 8 14 8.30687 14 8.68194V14.1374C14 14.5125 14.3068 14.8194 14.6818 14.8194H20.1364C20.5114 14.8194 20.8182 14.5125 20.8182 14.1374V8.68194C20.8182 8.30687 20.5114 8 20.1364 8Z" fill="#00BCEB"/>
<path fill-rule="evenodd" clip-rule="evenodd" d="M14 16.8655V22.321C14 22.6961 14.3068 23.003 14.6818 23.003H20.1364C20.5114 23.003 20.8182 22.6961 20.8182 22.321V16.8655C20.8182 16.4905 20.5114 16.1836 20.1364 16.1836H14.6818C14.3068 16.1836 14 16.4905 14 16.8655Z" fill="#00BCEB"/>
<path fill-rule="evenodd" clip-rule="evenodd" d="M22.1818 8.68194V14.1374C22.1818 14.5125 22.4886 14.8194 22.8636 14.8194H28.3181C28.6931 14.8194 29 14.5125 29 14.1374V8.68194C29 8.30687 28.6931 8 28.3181 8H22.8636C22.4886 8 22.1818 8.30687 22.1818 8.68194Z" fill="#00BCEB"/>
<path fill-rule="evenodd" clip-rule="evenodd" d="M22.8636 23.003H28.3181C28.6931 23.003 29 22.6961 29 22.321V16.8655C29 16.4905 28.6931 16.1836 28.3181 16.1836H22.8636C22.4886 16.1836 22.1818 16.4905 22.1818 16.8655V22.321C22.1818 22.6961 22.4886 23.003 22.8636 23.003Z" fill="#00BCEB"/>
<path fill-rule="evenodd" clip-rule="evenodd" d="M54.7732 10.0474H64.3183C64.6932 10.0474 65 9.74055 65 9.3655C65 8.99045 64.6932 8.68359 64.3183 8.68359H54.7732C54.3982 8.68359 54.0914 8.99045 54.0914 9.3655C54.0914 9.74055 54.3982 10.0474 54.7732 10.0474Z" fill="#9E9EA2"/>
<path fill-rule="evenodd" clip-rule="evenodd" d="M64.3183 20.2734H54.7732C54.3982 20.2734 54.0914 20.5803 54.0914 20.9553C54.0914 21.3304 54.3982 21.6372 54.7732 21.6372H64.3183C64.6932 21.6372 65 21.3304 65 20.9553C65 20.5803 64.6932 20.2734 64.3183 20.2734Z" fill="#9E9EA2"/>
<path fill-rule="evenodd" clip-rule="evenodd" d="M64.3183 14.4766H54.7732C54.3982 14.4766 54.0914 14.7834 54.0914 15.1585C54.0914 15.5335 54.3982 15.8404 54.7732 15.8404H64.3183C64.6932 15.8404 65 15.5335 65 15.1585C65 14.7834 64.6932 14.4766 64.3183 14.4766Z" fill="#9E9EA2"/>
<path fill-rule="evenodd" clip-rule="evenodd" d="M51.3636 10.7276C52.1167 10.7276 52.7272 10.117 52.7272 9.36381C52.7272 8.6106 52.1167 8 51.3636 8C50.6105 8 50 8.6106 50 9.36381C50 10.117 50.6105 10.7276 51.3636 10.7276Z" fill="#9E9EA2"/>
<path fill-rule="evenodd" clip-rule="evenodd" d="M51.3636 16.5245C52.1167 16.5245 52.7272 15.9139 52.7272 15.1607C52.7272 14.4075 52.1167 13.7969 51.3636 13.7969C50.6105 13.7969 50 14.4075 50 15.1607C50 15.9139 50.6105 16.5245 51.3636 16.5245Z" fill="#9E9EA2"/>
<path fill-rule="evenodd" clip-rule="evenodd" d="M51.3636 22.3214C52.1167 22.3214 52.7272 21.7108 52.7272 20.9576C52.7272 20.2043 52.1167 19.5938 51.3636 19.5938C50.6105 19.5938 50 20.2043 50 20.9576C50 21.7108 50.6105 22.3214 51.3636 22.3214Z" fill="#9E9EA2"/>
<path fill-rule="evenodd" clip-rule="evenodd" d="M1 7C1 3.68629 3.68629 1 7 1H70C73.3137 1 76 3.68629 76 7V24C76 27.3137 73.3137 30 70 30H7C3.68629 30 1 27.3137 1 24V7Z" stroke="#DFDFDF"/>
<path d="M38.5 1L38.5 30" stroke="#DFDFDF"/>
</svg>
