<svg width="37" height="36" viewBox="0 0 37 36" fill="none" xmlns="http://www.w3.org/2000/svg">
<rect width="37" height="36" fill="#E5E5E5"/>
<rect width="1440" height="970" transform="translate(-1325 -23.5)" fill="#FAFAFA"/>
<rect x="-1325" y="-23.5" width="1440" height="130" fill="white"/>
<rect x="-1325" y="-23" width="1440" height="123" fill="white"/>
<ellipse cx="18.5" cy="18.1601" rx="18.5" ry="17.5038" fill="#58585B"/>
<path fill-rule="evenodd" clip-rule="evenodd" d="M10.75 12.957H27.25C27.6625 12.957 28 13.2764 28 13.6666V23.6013C28 23.9915 27.6625 24.3109 27.25 24.3109H10.75C10.3375 24.3109 10 23.9915 10 23.6013V13.6666C10 13.2764 10.3375 12.957 10.75 12.957ZM18.9994 19.8043L25.3744 16.3982C25.7119 16.2208 25.7869 15.795 25.5994 15.4402C25.4119 15.0854 24.9619 14.9789 24.5869 15.1563L18.9619 18.1367L13.3369 15.1563C12.9994 14.9789 12.5119 15.0854 12.3244 15.4402C12.1369 15.7595 12.2494 16.2208 12.6244 16.3982L18.9994 19.8043Z" fill="white"/>
</svg>
