<svg width="37" height="36" viewBox="0 0 37 36" fill="none" xmlns="http://www.w3.org/2000/svg">
<ellipse cx="18.5" cy="18.1601" rx="18.5" ry="17.5038" fill="#58585B"/>
<path fill-rule="evenodd" clip-rule="evenodd" d="M28 19.3259V17.9037L24.2343 16.7304C24.1967 16.6237 24.159 16.5526 24.1213 16.4459L25.8912 13.1038L24.8368 12.1083L21.2971 13.7793C21.1841 13.7438 21.1088 13.7082 20.9958 13.6727L19.7531 10.1172H18.2469L17.0042 13.6727C16.8912 13.7082 16.8159 13.7438 16.7029 13.7793L13.1632 12.1083L12.1088 13.1038L13.8787 16.4459C13.841 16.5526 13.8033 16.6237 13.7657 16.7304L10 17.9393V19.3614L13.7657 20.5348C13.8033 20.6414 13.841 20.7125 13.8787 20.8192L12.1088 24.1614L13.1632 25.1569L16.7029 23.4858C16.8159 23.5214 16.8912 23.5569 17.0042 23.5925L18.2469 27.148H19.7531L20.9958 23.5925C21.1088 23.5569 21.2218 23.5214 21.2971 23.4858L24.8368 25.1569L25.8912 24.1614L24.1213 20.8192C24.159 20.7125 24.1967 20.6059 24.2343 20.5348L28 19.3259V19.3259ZM18.9626 22.5258C16.6656 22.5258 14.8204 20.7836 14.8204 18.6148C14.8204 16.4459 16.6656 14.7037 18.9626 14.7037C21.2597 14.7037 23.1049 16.4459 23.1049 18.6148C23.1049 20.7836 21.2597 22.5258 18.9626 22.5258V22.5258Z" fill="white"/>
</svg>
