<svg width="37" height="36" viewBox="0 0 37 36" fill="none" xmlns="http://www.w3.org/2000/svg">
<ellipse cx="18.5" cy="18.1601" rx="18.5" ry="17.5038" fill="#58585B"/>
<path fill-rule="evenodd" clip-rule="evenodd" d="M26.7818 25.0312L21.4 19.9391C22.1636 19.0102 22.6364 17.8404 22.6364 16.5674C22.6364 13.5397 20.0182 11.0625 16.8182 11.0625C13.6182 11.0625 11 13.5397 11 16.5674C11 19.5951 13.6182 22.0723 16.8182 22.0723C18.1636 22.0723 19.4 21.625 20.3818 20.9025L25.7636 25.9945C25.9091 26.1322 26.0909 26.201 26.2727 26.201C26.4545 26.201 26.6364 26.1322 26.7818 25.9945C27.0727 25.7193 27.0727 25.3064 26.7818 25.0312V25.0312ZM12.4548 16.5678C12.4548 14.297 14.4185 12.4391 16.8185 12.4391C19.2185 12.4391 21.1821 14.297 21.1821 16.5678C21.1821 18.8386 19.2185 20.6965 16.8185 20.6965C14.4185 20.6965 12.4548 18.8386 12.4548 16.5678V16.5678Z" fill="white"/>
</svg>
