<svg width="14" height="15" viewBox="0 0 14 15" fill="none" xmlns="http://www.w3.org/2000/svg">
<path fill-rule="evenodd" clip-rule="evenodd" d="M13.5864 11.8591C13.5545 11.7318 13.4591 11.5727 13.3318 11.5091L9.29091 9.15455C9.19545 9.09091 9.03636 8.93182 9.00455 8.80455L8.52727 7.75455C9.19545 7.27727 9.54545 5.71818 9.54545 4.85909V3.10909C9.54545 1.67727 8.46364 0.5 7 0.5C5.56818 0.5 4.45455 1.67727 4.45455 3.10909V4.85909C4.45455 5.75 4.80455 7.27727 5.47273 7.75455L4.99545 8.80455C4.96364 8.93182 4.83636 9.09091 4.70909 9.15455L0.668182 11.5091C0.572727 11.5727 0.445455 11.7318 0.413636 11.8591L0 14.5H14L13.5864 11.8591Z" fill="#58585B"/>
</svg>
